# xmcd
#
# Track frame offsets: 
#        150
#        24088
#        38037
#        77059
#        89496
#        106119
#        120458
#        155354
#        181618
#        203378
#        216366
#
# Disc length: 3413 seconds
#
# Revision: 0
# Processed by: cddbd v1.5.2PL0 Copyright (c) Steve Scherf et al.
# Submitted via: ExactAudioCopy v0.95b3
#
DISCID=770d530b
DTITLE=Creedence Clearwater Revival  - Bayou Country {2008 40th Annive
DTITLE=rsary Edition}  
DYEAR=1900
DGENRE=
TTITLE0=Born On The Bayou
TTITLE1=Bootleg
TTITLE2=Graveyard Train
TTITLE3=Good Golly Miss Molly
TTITLE4=Penthouse Pauper
TTITLE5=Proud Mary
TTITLE6=Keep On Chooglin'
TTITLE7=Bootleg (Alternate Take) (Bonus Track)
TTITLE8=Born On The Bayou (Live Bonus Track)
TTITLE9=Proud Mary (Live Bonus Track)
TTITLE10=Crazy Otto (Live Bonus Track)
EXTD=
EXTT0=
EXTT1=
EXTT2=
EXTT3=
EXTT4=
EXTT5=
EXTT6=
EXTT7=
EXTT8=
EXTT9=
EXTT10=
PLAYORDER=
